{"title":"The Boss Baby: Back in Business series 2 (avi)","magnet":"magnet:?xt=urn:btih:f7008c1e1b4fe46d6cca98dfcfcea1054c513b29&dn=The+Boss+Baby%3A+Back+in+Business+series+2+%28avi%29&tr=udp%3A%2F%2Ftracker.leechers-paradise.org%3A6969&tr=udp%3A%2F%2Fzer0day.ch%3A1337&tr=udp%3A%2F%2Fopen.demonii.com%3A1337&tr=udp%3A%2F%2Ftracker.coppersurfer.tk%3A6969&tr=udp%3A%2F%2Fexodus.desync.com%3A6969","uploader":"moronorless","categoryP":"video","categoryS":"tv_shows","size":"2507894302","seeders":"0","leechers":"0","description":"Netflix The Boss Baby: Back in Business\r\nSeries 1 2018-04-06\r\nSeries 2 2018-10-12\r\n\r\nWith a little help from his brother and accomplice, Tim, Boss Baby tries to balance family life with his job at Baby Corp headquarters.\r\n\r\nIMDB ID: tt7741824\r\nTags: Animation, Children, Adventure, Comedy\r\n <a href=\"\nhttps://www.thetvdb.com/series/skylanders-academy\" rel=\"nofollow\" target=\"_NEW\">\nhttps://www.thetvdb.com/series/skylanders-academy</a>\r\n\r\ncompressed XviD-AFG files using &quot;Any Video Converter&quot; v 3.2.3\r\n\r\nVideo Information:\r\nGeneral\r\nFormat                                   : AVI\r\nFormat/Info                              : Audio Video Interleave\r\nFile size                                : 184 MiB\r\nDuration                                 : 24 min 2 s\r\nOverall bit rate mode                    : Variable\r\nOverall bit rate                         : 1 072 kb/s\r\nWriting application                      : MEncoder Sherpya-SVN-r32492-4.2.5\r\nWriting library                          : MPlayer\r\n\r\nVideo\r\nID                                       : 0\r\nFormat                                   : MPEG-4 Visual\r\nFormat profile                           : Simple@L3\r\nFormat settings, BVOP                    : No\r\nFormat settings, QPel                    : No\r\nFormat settings, GMC                     : No warppoints\r\nFormat settings, Matrix                  : Default (H.263)\r\nCodec ID                                 : XVID\r\nCodec ID/Hint                            : XviD\r\nDuration                                 : 24 min 2 s\r\nBit rate                                 : 937 kb/s\r\nWidth                                    : 640 pixels\r\nHeight                                   : 360 pixels\r\nDisplay aspect ratio                     : 16:9\r\nFrame rate                               : 24.000 FPS\r\nColor space                              : YUV\r\nChroma subsampling                       : 4:2:0\r\nBit depth                                : 8 bits\r\nScan type                                : Progressive\r\nCompression mode                         : Lossy\r\nBits/(Pixel*Frame)                       : 0.169\r\nStream size                              : 161 MiB (87%)\r\nWriting library                          : XviD 1.2.1 (UTC 2008-12-04)\r\n\r\nAudio\r\nID                                       : 1\r\nFormat                                   : MPEG Audio\r\nFormat version                           : Version 1\r\nFormat profile                           : Layer 3\r\nFormat settings                          : Joint stereo / MS Stereo\r\nCodec ID                                 : 55\r\nCodec ID/Hint                            : MP3\r\nDuration                                 : 24 min 2 s\r\nBit rate mode                            : Variable\r\nBit rate                                 : 122 kb/s\r\nChannel(s)                               : 2 channels\r\nSampling rate                            : 44.1 kHz\r\nCompression mode                         : Lossy\r\nStream size                              : 21.0 MiB (11%)\r\nAlignment                                : Aligned on interleaves\r\nInterleave, duration                     : 26  ms (0.63 video frame)\r\nInterleave, preload duration             : 136  ms\r\nWriting library                          : LAME3.98.4","last_updated":"2018-10-13T12:45:41.954Z","parsed":{"xt":"urn:btih:f7008c1e1b4fe46d6cca98dfcfcea1054c513b29","dn":"The Boss Baby: Back in Business series 2 (avi)","tr":["udp://exodus.desync.com:6969","udp://open.demonii.com:1337","udp://tracker.coppersurfer.tk:6969","udp://tracker.leechers-paradise.org:6969","udp://zer0day.ch:1337"],"infoHash":"f7008c1e1b4fe46d6cca98dfcfcea1054c513b29","infoHashBuffer":{"type":"Buffer","data":[247,0,140,30,27,79,228,109,108,202,152,223,207,206,161,5,76,81,59,41]},"name":"The Boss Baby: Back in Business series 2 (avi)","announce":["udp://exodus.desync.com:6969","udp://open.demonii.com:1337","udp://tracker.coppersurfer.tk:6969","udp://tracker.leechers-paradise.org:6969","udp://zer0day.ch:1337"],"urlList":[]}}